<!--?xml version="1.0" standalone="no"?-->

<svg version="1.0" xmlns="http://www.w3.org/2000/svg" width="300.000000pt" height="300.000000pt" viewBox="0 0 300.000000 300.000000" preserveAspectRatio="xMidYMid meet">
<g transform="translate(0.000000,300.000000) scale(0.100000,-0.100000)" fill="#080808" stroke="none">
<path class="node" id="node1" d="M1295 2924 c-368 -55 -679 -235 -919 -533 -143 -177 -219 -331 -278
-568 -20 -78 -22 -114 -22 -323 0 -249 7 -300 64 -470 83 -247 246 -474 469
-654 177 -143 331 -219 568 -278 78 -20 114 -22 323 -22 249 0 300 7 470 64
247 83 474 246 654 469 143 177 219 331 278 568 20 78 22 114 22 323 0 249 -7
300 -64 470 -83 247 -246 474 -469 654 -178 144 -336 221 -568 278 -73 17
-124 21 -293 24 -113 1 -218 0 -235 -2z m370 -160 c321 -39 602 -193 812 -446
176 -212 257 -400 289 -671 16 -139 16 -155 0 -294 -24 -209 -82 -376 -184
-533 -46 -70 -161 -210 -173 -210 -5 0 -9 30 -9 66 0 97 -50 249 -113 345 -16
24 -16 27 7 75 52 105 118 325 102 341 -7 7 -89 22 -127 22 -24 1 -26 -4 -37
-62 -25 -135 -109 -307 -199 -407 -89 -99 -186 -162 -314 -201 -63 -20 -96
-23 -219 -23 -123 0 -156 3 -219 23 -128 39 -225 102 -314 201 -90 101 -174
272 -199 408 l-12 64 -65 -7 c-74 -8 -91 -13 -91 -27 0 -6 9 -48 20 -95 69
-283 221 -499 441 -626 131 -75 298 -112 474 -104 66 2 127 8 136 11 11 5 35
-9 75 -43 32 -28 95 -69 139 -91 66 -34 97 -43 178 -53 53 -6 97 -14 97 -17 0
-13 -222 -111 -302 -135 -48 -13 -148 -32 -222 -42 -127 -15 -144 -15 -282 1
-272 32 -460 113 -672 289 -259 215 -408 492 -448 830 -16 139 -16 155 0 294
32 271 113 459 289 671 206 248 491 406 802 446 148 19 188 19 340 0z m534
-1948 c38 -79 43 -160 11 -194 -44 -46 -132 -46 -234 2 -99 46 -99 44 6 113
51 33 111 79 133 102 21 23 42 41 47 41 4 0 21 -29 37 -64z"></path>
<path class="node" id="node2" d="M870 2209 c-116 -36 -210 -169 -250 -356 -12 -55 -20 -114 -18 -130
3 -28 4 -28 78 -31 l76 -3 11 78 c20 134 67 238 125 273 41 25 84 25 123 1 54
-32 113 -170 130 -303 l6 -48 76 0 76 0 -6 84 c-13 183 -105 358 -220 418 -46
23 -156 32 -207 17z"></path>
<path class="node" id="node3" d="M1975 2211 c-142 -37 -257 -222 -272 -437 l-6 -84 76 0 76 0 6 48
c17 133 76 271 130 303 109 67 215 -50 248 -274 l11 -78 76 3 c74 3 75 3 78
31 6 52 -38 229 -75 298 -41 79 -103 147 -157 173 -43 20 -144 30 -191 17z"></path>
</g>
<g transform="translate(0.000000,300.000000) scale(0.100000,-0.100000)" fill="#586C5F" stroke="none">



</g>
</svg>